<svg width="24" height="24" viewBox="0 0 24 24" fill="none" xmlns="http://www.w3.org/2000/svg">
<path d="M12 0.625C5.71836 0.625 0.625 5.71836 0.625 12C0.625 18.2816 5.71836 23.375 12 23.375C18.2816 23.375 23.375 18.2816 23.375 12C23.375 5.71836 18.2816 0.625 12 0.625ZM17.4666 9.19941C17.4742 9.31875 17.4742 9.44316 17.4742 9.56504C17.4742 13.2924 14.6355 17.5859 9.44824 17.5859C7.84863 17.5859 6.36582 17.1213 5.1166 16.3215C5.34512 16.3469 5.56348 16.357 5.79707 16.357C7.11738 16.357 8.33105 15.9102 9.29844 15.1535C8.05938 15.1281 7.01836 14.3156 6.66289 13.1984C7.09707 13.2619 7.48809 13.2619 7.93496 13.1477C7.29696 13.018 6.72351 12.6715 6.31203 12.167C5.90056 11.6625 5.67643 11.0311 5.67773 10.3801V10.3445C6.05098 10.5553 6.49023 10.6848 6.9498 10.7025C6.56347 10.4451 6.24663 10.0962 6.02739 9.68699C5.80815 9.27774 5.69328 8.82072 5.69297 8.35645C5.69297 7.83086 5.83008 7.35098 6.07637 6.93457C6.78452 7.80632 7.66818 8.51931 8.66993 9.02718C9.67168 9.53505 10.7691 9.82644 11.8908 9.88242C11.4922 7.96543 12.9242 6.41406 14.6457 6.41406C15.4582 6.41406 16.1895 6.7543 16.7049 7.30273C17.3422 7.1834 17.9516 6.94473 18.4949 6.6248C18.2842 7.27734 17.8424 7.82832 17.2559 8.17617C17.8246 8.11523 18.373 7.95781 18.8809 7.73691C18.4975 8.30059 18.0176 8.80078 17.4666 9.19941Z" fill="#5E4E55"/>
</svg>
