<svg width="24" height="24" viewBox="0 0 24 24" fill="none" xmlns="http://www.w3.org/2000/svg">
<path d="M13.9236 11.7996L11.2284 10.542C10.9932 10.4328 10.8 10.5552 10.8 10.8156V13.1844C10.8 13.4448 10.9932 13.5672 11.2284 13.458L13.9224 12.2004C14.1588 12.09 14.1588 11.91 13.9236 11.7996ZM12 0.480011C5.63761 0.480011 0.480011 5.63761 0.480011 12C0.480011 18.3624 5.63761 23.52 12 23.52C18.3624 23.52 23.52 18.3624 23.52 12C23.52 5.63761 18.3624 0.480011 12 0.480011ZM12 16.68C6.10321 16.68 6.00001 16.1484 6.00001 12C6.00001 7.85161 6.10321 7.32001 12 7.32001C17.8968 7.32001 18 7.85161 18 12C18 16.1484 17.8968 16.68 12 16.68Z" fill="#5E4E55"/>
</svg>
